# xmcd
#
# Track frame offsets: 
#        150
#        22578
#        45288
#        61284
#        77357
#        96410
#        112800
#        135154
#        161989
#        181071
#
# Disc length: 2691 seconds
#
# Revision: 0
# Processed by: cddbd v1.5.2PL0 Copyright (c) Steve Scherf et al.
# Submitted via: ExactAudioCopy v1.0b1
#
DISCID=650a810a
DTITLE=The Patrik Jansson Band - Here We Are
DYEAR=2014
DGENRE=Blues Rock
TTITLE0=Here I Am
TTITLE1=Moving On
TTITLE2=One More Broken Heart
TTITLE3=Tell Me Baby
TTITLE4=Get Away
TTITLE5=Greed
TTITLE6=Lonis
TTITLE7=One Way Track
TTITLE8=Never Make Your Move Too Soon
TTITLE9=Keep Holding On
EXTD=
EXTT0=
EXTT1=
EXTT2=
EXTT3=
EXTT4=
EXTT5=
EXTT6=
EXTT7=
EXTT8=
EXTT9=
PLAYORDER=
